<svg width="1883" height="450" viewBox="0 0 1883 450" fill="none" xmlns="http://www.w3.org/2000/svg">
<path d="M605.131 64.2068H659.567L745.231 180.676L837.646 64.2068H889.973L770.128 213.169L893.349 370.57H838.068L743.121 244.396L648.595 370.57H592.893L719.068 213.591L605.131 64.2068Z" fill="black"/>
<path d="M930.76 370.57V64.2068H1174.25V104.296H974.225V193.757H1162.01V233.846H974.225V330.481H1177.2V370.57H930.76Z" fill="black"/>
<path d="M1275.88 64.2068V330.481H1463.24V370.57H1232.42V64.2068H1275.88Z" fill="black"/>
<path d="M1550.83 64.2068V370.57H1507.36V64.2068H1550.83Z" fill="black"/>
<path d="M1871.61 153.246H1828.56C1827.16 133.554 1819.7 119.206 1806.2 110.204C1792.98 100.92 1773 96.2779 1746.28 96.2779C1719.83 96.2779 1699.86 100.498 1686.35 108.938C1672.85 117.377 1666.1 129.334 1666.1 144.807C1666.1 156.904 1670.32 166.047 1678.76 172.236C1687.2 178.144 1701.12 182.926 1720.53 186.583L1787.63 199.665C1821.39 206.136 1845.72 215.419 1860.63 227.516C1875.54 239.613 1883 258.04 1883 282.797C1883 312.617 1871.47 336.108 1848.4 353.269C1825.33 370.148 1792.55 378.588 1750.07 378.588C1704.22 378.588 1669.47 369.164 1645.84 350.315C1622.21 331.466 1610.4 303.755 1610.4 267.183H1656.39C1658.08 314.727 1690.15 338.499 1752.61 338.499C1779.89 338.499 1800.85 333.998 1815.48 324.996C1830.11 315.712 1837.43 302.911 1837.43 286.595C1837.43 274.216 1833.21 264.651 1824.77 257.899C1816.61 251.148 1803.24 246.224 1784.68 243.13L1709.14 229.626C1678.76 224.281 1656.39 215.279 1642.04 202.619C1627.7 189.678 1620.52 171.673 1620.52 148.604C1620.52 119.628 1631.49 96.9812 1653.44 80.6643C1675.66 64.3475 1707.73 56.189 1749.65 56.189C1788.76 56.189 1818.86 64.6288 1839.96 81.5083C1861.06 98.3878 1871.61 122.301 1871.61 153.246Z" fill="black"/>
<path fill-rule="evenodd" clip-rule="evenodd" d="M235.233 449.397L470.466 214.164L256.492 0.19017L289.61 80.354L423.42 214.164L235.233 402.351L47.0466 214.164L181.158 78.1671L214.096 0.067627L0 214.164L235.233 449.397Z" fill="black"/>
<path d="M235.233 402.351L214.096 0.067627L181.158 78.1671L235.233 402.351Z" fill="black"/>
<path d="M256.492 0.19017L235.233 402.351L289.61 80.354L256.492 0.19017Z" fill="black"/>
</svg>
