<svg width="240" height="41" viewBox="0 0 240 41" fill="none" xmlns="http://www.w3.org/2000/svg">
<path d="M71.4345 16.7907C71.0564 15.4295 70.2623 14.3803 69.0524 13.643C67.8424 12.8867 66.3016 12.5086 64.43 12.5086C62.029 12.5086 60.1479 13.227 58.7867 14.6638C57.4444 16.1007 56.7733 18.0763 56.7733 20.5907C56.7733 23.0673 57.4444 25.0335 58.7867 26.4892C60.1479 27.945 62.0006 28.6728 64.3449 28.6728C66.4623 28.6728 68.2016 28.1246 69.5628 27.028C70.924 25.9126 71.6992 24.4191 71.8882 22.5474H65.3658V19.8534H74.6106V30.8848H72.5688L72.2852 27.4251C70.6594 30.0907 68.0031 31.4236 64.3166 31.4236C61.1215 31.4236 58.5598 30.431 56.6315 28.446C54.7031 26.4609 53.7389 23.8425 53.7389 20.5907C53.7389 17.2823 54.7126 14.6544 56.6598 12.7071C58.6071 10.741 61.2728 9.75787 64.6569 9.75787C67.3225 9.75787 69.5628 10.429 71.3778 11.7713C73.1927 13.0947 74.2041 14.7678 74.4121 16.7907H71.4345ZM94.78 23.8236H81.0262C81.0262 25.3171 81.5272 26.5176 82.5292 27.4251C83.5312 28.3136 84.8451 28.7579 86.471 28.7579C87.6809 28.7579 88.7113 28.531 89.562 28.0773C90.4317 27.6236 91.0178 26.9808 91.3203 26.1489H94.5247C93.9954 27.7937 93.0218 29.0698 91.6038 29.9773C90.2048 30.8659 88.4939 31.3101 86.471 31.3101C83.8998 31.3101 81.8581 30.5917 80.3456 29.1549C78.8521 27.6992 78.1053 25.7425 78.1053 23.2848C78.1053 20.8081 78.8615 18.8325 80.374 17.3579C81.8864 15.8833 83.9188 15.1459 86.471 15.1459C89.08 15.1459 91.1123 15.8738 92.568 17.3295C94.0426 18.7663 94.78 20.7514 94.78 23.2848V23.8236ZM81.0829 21.8668H91.8307C91.6227 20.5624 91.0461 19.5415 90.1009 18.8042C89.1556 18.0668 87.9456 17.6982 86.471 17.6982C85.0153 17.6982 83.8053 18.0668 82.8411 18.8042C81.8959 19.5415 81.3098 20.5624 81.0829 21.8668ZM100.625 15.628V18.2653C102.194 16.1857 104.283 15.1459 106.892 15.1459C109.066 15.1459 110.569 15.7131 111.401 16.8474C112.252 17.9818 112.677 19.636 112.677 21.8101V30.8848H109.926V22.037C109.926 20.4489 109.652 19.2957 109.104 18.5773C108.556 17.84 107.61 17.4713 106.268 17.4713C104.642 17.4713 103.291 18.0007 102.213 19.0594C101.154 20.0992 100.625 21.4604 100.625 23.143V30.8848H97.8741V15.628H100.625ZM132.443 23.8236H118.69C118.69 25.3171 119.191 26.5176 120.192 27.4251C121.194 28.3136 122.508 28.7579 124.134 28.7579C125.344 28.7579 126.375 28.531 127.225 28.0773C128.095 27.6236 128.681 26.9808 128.984 26.1489H132.188C131.659 27.7937 130.685 29.0698 129.267 29.9773C127.868 30.8659 126.157 31.3101 124.134 31.3101C121.563 31.3101 119.521 30.5917 118.009 29.1549C116.515 27.6992 115.769 25.7425 115.769 23.2848C115.769 20.8081 116.525 18.8325 118.037 17.3579C119.55 15.8833 121.582 15.1459 124.134 15.1459C126.743 15.1459 128.776 15.8738 130.231 17.3295C131.706 18.7663 132.443 20.7514 132.443 23.2848V23.8236ZM118.746 21.8668H129.494C129.286 20.5624 128.709 19.5415 127.764 18.8042C126.819 18.0668 125.609 17.6982 124.134 17.6982C122.679 17.6982 121.469 18.0668 120.504 18.8042C119.559 19.5415 118.973 20.5624 118.746 21.8668ZM149.064 20.2221H146.399C146.21 18.3882 144.735 17.4713 141.975 17.4713C139.328 17.4713 138.005 18.1519 138.005 19.5131C138.005 20.1937 138.25 20.6663 138.742 20.931C139.252 21.1957 140.16 21.4415 141.464 21.6683L144.754 22.2071C146.493 22.4907 147.722 22.9539 148.44 23.5967C149.178 24.2206 149.546 25.2037 149.546 26.546C149.546 28.0962 148.913 29.2778 147.646 30.0907C146.38 30.9037 144.508 31.3101 142.031 31.3101C139.649 31.3101 137.844 30.8753 136.615 30.0057C135.405 29.136 134.715 27.7748 134.545 25.9221H137.551C137.683 26.9052 138.127 27.6614 138.884 28.1907C139.659 28.7201 140.708 28.9848 142.031 28.9848C143.563 28.9848 144.735 28.7863 145.548 28.3892C146.38 27.9733 146.796 27.4062 146.796 26.6877C146.796 26.1206 146.588 25.7047 146.172 25.44C145.756 25.1753 145.037 24.9579 144.017 24.7877L140.614 24.1922C138.685 23.8708 137.305 23.4265 136.473 22.8594C135.66 22.2733 135.254 21.3186 135.254 19.9952C135.254 18.4071 135.83 17.2066 136.984 16.3937C138.156 15.5619 139.867 15.1459 142.117 15.1459C144.385 15.1459 146.106 15.5808 147.278 16.4504C148.469 17.3201 149.064 18.5773 149.064 20.2221ZM155.602 15.628V30.8848H152.851V15.628H155.602ZM155.602 13.643H152.851V10.2967H155.602V13.643ZM158.461 15.628H162.205L166.544 21.4698L171.081 15.628H174.767L168.217 23.143L175.051 30.8848H171.194L166.544 24.9295L161.439 30.8848H157.809L164.615 23.143L158.461 15.628Z" fill="white"/>
<path d="M181.052 17.547H182.957L186.487 28.6424L189.946 17.547H192.008L195.468 28.6424L198.997 17.547H200.902L196.638 30.2324H194.507L190.96 19.2943L187.448 30.2324H185.316L181.052 17.547ZM208.738 25.4099C208.295 25.6778 207.346 25.8933 205.89 26.0564C204.83 26.1728 204.09 26.3243 203.671 26.5107C203.251 26.697 203.042 27.0523 203.042 27.5765C203.042 28.0308 203.222 28.3919 203.583 28.6598C203.956 28.9278 204.469 29.0617 205.121 29.0617C206.169 29.0617 207.031 28.8404 207.707 28.3978C208.394 27.9551 208.738 27.4251 208.738 26.8077V25.4099ZM208.79 28.7822C207.893 29.9237 206.577 30.4945 204.841 30.4945C203.677 30.4945 202.785 30.2441 202.168 29.7432C201.551 29.2423 201.242 28.5492 201.242 27.6639C201.242 27.2329 201.306 26.8601 201.434 26.5456C201.574 26.2311 201.755 25.9748 201.976 25.7768C202.209 25.5788 202.518 25.4099 202.902 25.2701C203.298 25.1186 203.694 25.008 204.09 24.9381C204.486 24.8682 204.981 24.7983 205.575 24.7284C205.738 24.7051 205.954 24.6818 206.222 24.6585C206.49 24.6352 206.688 24.6177 206.816 24.6061C206.944 24.5945 207.107 24.577 207.305 24.5537C207.515 24.5187 207.666 24.4896 207.759 24.4663C207.853 24.443 207.963 24.4081 208.091 24.3615C208.231 24.3149 208.33 24.2683 208.388 24.2217C208.447 24.1634 208.505 24.0994 208.563 24.0295C208.633 23.9479 208.68 23.8606 208.703 23.7674C208.726 23.6626 208.738 23.5461 208.738 23.4179C208.738 22.917 208.534 22.5501 208.126 22.3171C207.73 22.0842 207.107 21.9677 206.257 21.9677C205.302 21.9677 204.591 22.1191 204.125 22.422C203.671 22.7132 203.42 23.1908 203.374 23.8548H201.609C201.725 21.6415 203.234 20.5349 206.134 20.5349C207.707 20.5349 208.814 20.7679 209.454 21.2338C210.107 21.6997 210.433 22.5035 210.433 23.6451V27.4542C210.433 27.9667 210.491 28.3395 210.608 28.5725C210.736 28.7938 210.957 28.9045 211.272 28.9045C211.4 28.9045 211.569 28.887 211.778 28.8521V30.2149C211.277 30.2965 210.829 30.3373 210.433 30.3373C209.513 30.3373 208.965 29.8189 208.79 28.7822ZM215.2 17.547V30.2324H213.505V17.547H215.2ZM219.687 17.547V30.2324H217.992V17.547H219.687ZM232.003 25.8816H223.528C223.528 26.8019 223.837 27.5416 224.455 28.1007C225.072 28.6482 225.881 28.9219 226.883 28.9219C227.629 28.9219 228.264 28.7822 228.788 28.5026C229.324 28.223 229.685 27.827 229.871 27.3144H231.846C231.519 28.3279 230.92 29.1141 230.046 29.6733C229.184 30.2208 228.13 30.4945 226.883 30.4945C225.299 30.4945 224.041 30.0519 223.109 29.1666C222.189 28.2696 221.729 27.064 221.729 25.5496C221.729 24.0237 222.195 22.8064 223.127 21.8978C224.058 20.9892 225.311 20.5349 226.883 20.5349C228.491 20.5349 229.743 20.9834 230.64 21.8803C231.549 22.7656 232.003 23.9887 232.003 25.5496V25.8816ZM223.563 24.676H230.186C230.058 23.8722 229.702 23.2432 229.12 22.7889C228.537 22.3346 227.792 22.1075 226.883 22.1075C225.986 22.1075 225.241 22.3346 224.647 22.7889C224.064 23.2432 223.703 23.8722 223.563 24.676ZM234.696 18.4381H236.391V20.8319H238.697V22.2647H236.391V27.8386C236.391 28.2347 236.478 28.5142 236.653 28.6773C236.827 28.8404 237.124 28.9219 237.544 28.9219C237.905 28.9219 238.289 28.8753 238.697 28.7822V30.3373C238.01 30.4421 237.486 30.4945 237.124 30.4945C236.297 30.4945 235.686 30.3198 235.29 29.9703C234.894 29.6092 234.696 29.0617 234.696 28.3279V22.2647H233.053V20.8319H234.696V18.4381Z" fill="white" fill-opacity="0.6"/>
<path fill-rule="evenodd" clip-rule="evenodd" d="M21.0896 40.5464L42.1791 19.3195L22.9955 0.0110579L25.9646 7.24485L37.9612 19.3195L21.0896 36.301L4.21792 19.3195L16.2415 7.0475L19.1946 0L0 19.3195L21.0896 40.5464Z" fill="white"/>
<path d="M21.0896 36.301L19.1946 0L16.2415 7.0475L21.0896 36.301Z" fill="white"/>
<path d="M22.9955 0.0110579L21.0896 36.301L25.9646 7.24485L22.9955 0.0110579Z" fill="white"/>
</svg>
