<svg width="123" height="89" viewBox="0 0 123 89" fill="none" xmlns="http://www.w3.org/2000/svg">
<path d="M18.915 50.906C18.5368 49.5448 17.7428 48.4955 16.5329 47.7582C15.3229 47.002 13.7821 46.6239 11.9105 46.6239C9.50946 46.6239 7.62837 47.3423 6.26717 48.7791C4.92488 50.2159 4.25374 52.1915 4.25374 54.706C4.25374 57.1826 4.92488 59.1487 6.26717 60.6045C7.62837 62.0602 9.48111 62.7881 11.8254 62.7881C13.9428 62.7881 15.6821 62.2398 17.0433 61.1433C18.4045 60.0279 19.1796 58.5343 19.3687 56.6627H12.8463V53.9686H22.0911V65H20.0493L19.7657 61.5403C18.1398 64.206 15.4836 65.5388 11.797 65.5388C8.602 65.5388 6.04031 64.5463 4.11195 62.5612C2.18358 60.5761 1.2194 57.9577 1.2194 54.706C1.2194 51.3975 2.19304 48.7696 4.1403 46.8224C6.08757 44.8562 8.75325 43.8731 12.1373 43.8731C14.803 43.8731 17.0433 44.5443 18.8582 45.8865C20.6732 47.2099 21.6846 48.8831 21.8926 50.906H18.915ZM42.2604 57.9388H28.5067C28.5067 59.4323 29.0077 60.6328 30.0097 61.5403C31.0117 62.4289 32.3256 62.8731 33.9515 62.8731C35.1614 62.8731 36.1918 62.6463 37.0425 62.1925C37.9122 61.7388 38.4982 61.096 38.8007 60.2642H42.0052C41.4759 61.909 40.5022 63.1851 39.0843 64.0925C37.6853 64.9811 35.9744 65.4254 33.9515 65.4254C31.3803 65.4254 29.3385 64.707 27.8261 63.2701C26.3325 61.8144 25.5858 59.8577 25.5858 57.4C25.5858 54.9234 26.342 52.9477 27.8544 51.4731C29.3669 49.9985 31.3992 49.2612 33.9515 49.2612C36.5604 49.2612 38.5928 49.989 40.0485 51.4448C41.5231 52.8816 42.2604 54.8667 42.2604 57.4V57.9388ZM28.5634 55.9821H39.3112C39.1032 54.6776 38.5266 53.6567 37.5813 52.9194C36.636 52.1821 35.4261 51.8134 33.9515 51.8134C32.4957 51.8134 31.2858 52.1821 30.3216 52.9194C29.3763 53.6567 28.7903 54.6776 28.5634 55.9821ZM48.1053 49.7433V52.3806C49.6745 50.301 51.7635 49.2612 54.3725 49.2612C56.5466 49.2612 58.0496 49.8283 58.8815 50.9627C59.7322 52.097 60.1576 53.7512 60.1576 55.9254V65H57.4068V56.1522C57.4068 54.5642 57.1327 53.4109 56.5844 52.6925C56.0362 51.9552 55.0909 51.5866 53.7486 51.5866C52.1227 51.5866 50.771 52.1159 49.6934 53.1746C48.6347 54.2144 48.1053 55.5756 48.1053 57.2582V65H45.3546V49.7433H48.1053ZM79.9237 57.9388H66.17C66.17 59.4323 66.671 60.6328 67.673 61.5403C68.675 62.4289 69.9889 62.8731 71.6148 62.8731C72.8247 62.8731 73.8551 62.6463 74.7058 62.1925C75.5755 61.7388 76.1615 61.096 76.464 60.2642H79.6685C79.1391 61.909 78.1655 63.1851 76.7476 64.0925C75.3486 64.9811 73.6376 65.4254 71.6148 65.4254C69.0436 65.4254 67.0018 64.707 65.4894 63.2701C63.9958 61.8144 63.2491 59.8577 63.2491 57.4C63.2491 54.9234 64.0053 52.9477 65.5177 51.4731C67.0302 49.9985 69.0625 49.2612 71.6148 49.2612C74.2237 49.2612 76.2561 49.989 77.7118 51.4448C79.1864 52.8816 79.9237 54.8667 79.9237 57.4V57.9388ZM66.2267 55.9821H76.9745C76.7665 54.6776 76.1899 53.6567 75.2446 52.9194C74.2993 52.1821 73.0894 51.8134 71.6148 51.8134C70.159 51.8134 68.9491 52.1821 67.9849 52.9194C67.0396 53.6567 66.4536 54.6776 66.2267 55.9821ZM96.5448 54.3373H93.8791C93.69 52.5035 92.2154 51.5866 89.4552 51.5866C86.8084 51.5866 85.485 52.2671 85.485 53.6283C85.485 54.3089 85.7308 54.7816 86.2223 55.0463C86.7328 55.3109 87.6403 55.5567 88.9447 55.7836L92.2343 56.3224C93.9736 56.606 95.2025 57.0691 95.9209 57.7119C96.6582 58.3358 97.0268 59.3189 97.0268 60.6612C97.0268 62.2114 96.3935 63.393 95.1268 64.206C93.8602 65.0189 91.9885 65.4254 89.5119 65.4254C87.1298 65.4254 85.3243 64.9905 84.0955 64.1209C82.8855 63.2512 82.1955 61.89 82.0253 60.0373H85.0313C85.1636 61.0204 85.6079 61.7766 86.3641 62.306C87.1393 62.8353 88.1885 63.1 89.5119 63.1C91.0433 63.1 92.2154 62.9015 93.0283 62.5045C93.8602 62.0886 94.2761 61.5214 94.2761 60.803C94.2761 60.2358 94.0681 59.8199 93.6522 59.5552C93.2363 59.2905 92.5179 59.0731 91.497 58.903L88.094 58.3075C86.1656 57.9861 84.7855 57.5418 83.9537 56.9746C83.1408 56.3885 82.7343 55.4338 82.7343 54.1104C82.7343 52.5224 83.3109 51.3219 84.4641 50.5089C85.6363 49.6771 87.3472 49.2612 89.597 49.2612C91.8656 49.2612 93.586 49.696 94.7582 50.5657C95.9492 51.4353 96.5448 52.6925 96.5448 54.3373ZM103.082 49.7433V65H100.332V49.7433H103.082ZM103.082 47.7582H100.332V44.4119H103.082V47.7582ZM105.942 49.7433H109.685L114.024 55.5851L118.561 49.7433H122.248L115.697 57.2582L122.532 65H118.675L114.024 59.0448L108.92 65H105.29L112.096 57.2582L105.942 49.7433Z" fill="white"/>
<path d="M30.5329 73.3146H32.4375L35.967 84.41L39.4267 73.3146H41.4885L44.9482 84.41L48.4777 73.3146H50.3823L46.1189 86H43.9871L40.4401 75.0619L36.928 86H34.7963L30.5329 73.3146ZM58.2184 81.1774C57.7757 81.4454 56.8264 81.6609 55.3703 81.8239C54.3103 81.9404 53.5706 82.0919 53.1512 82.2782C52.7319 82.4646 52.5222 82.8199 52.5222 83.3441C52.5222 83.7984 52.7027 84.1595 53.0638 84.4274C53.4366 84.6953 53.9491 84.8293 54.6015 84.8293C55.6499 84.8293 56.5119 84.608 57.1875 84.1653C57.8748 83.7227 58.2184 83.1927 58.2184 82.5753V81.1774ZM58.2708 84.5497C57.3739 85.6913 56.0576 86.2621 54.3219 86.2621C53.157 86.2621 52.2659 86.0116 51.6485 85.5108C51.0311 85.0099 50.7225 84.3168 50.7225 83.4315C50.7225 83.0005 50.7865 82.6277 50.9147 82.3132C51.0544 81.9987 51.235 81.7424 51.4563 81.5444C51.6893 81.3463 51.998 81.1774 52.3824 81.0377C52.7784 80.8862 53.1745 80.7756 53.5706 80.7057C53.9666 80.6358 54.4617 80.5659 55.0558 80.496C55.2189 80.4727 55.4344 80.4494 55.7023 80.4261C55.9702 80.4028 56.1682 80.3853 56.2964 80.3737C56.4245 80.362 56.5876 80.3446 56.7856 80.3213C56.9953 80.2863 57.1467 80.2572 57.2399 80.2339C57.3331 80.2106 57.4438 80.1756 57.5719 80.1291C57.7117 80.0825 57.8107 80.0359 57.8689 79.9893C57.9272 79.931 57.9854 79.867 58.0437 79.7971C58.1136 79.7155 58.1601 79.6282 58.1834 79.535C58.2067 79.4301 58.2184 79.3136 58.2184 79.1855C58.2184 78.6846 58.0145 78.3177 57.6068 78.0847C57.2108 77.8517 56.5876 77.7352 55.7372 77.7352C54.782 77.7352 54.0715 77.8867 53.6055 78.1895C53.1512 78.4808 52.9008 78.9584 52.8542 79.6223H51.0894C51.2059 77.4091 52.7144 76.3025 55.6149 76.3025C57.1875 76.3025 58.2941 76.5354 58.9348 77.0014C59.5871 77.4673 59.9133 78.2711 59.9133 79.4127V83.2218C59.9133 83.7343 59.9715 84.1071 60.088 84.3401C60.2161 84.5614 60.4375 84.672 60.752 84.672C60.8801 84.672 61.049 84.6546 61.2587 84.6196V85.9825C60.7578 86.0641 60.3093 86.1048 59.9133 86.1048C58.993 86.1048 58.4455 85.5865 58.2708 84.5497ZM64.68 73.3146V86H62.9851V73.3146H64.68ZM69.1677 73.3146V86H67.4728V73.3146H69.1677ZM81.4833 81.6492H73.0089C73.0089 82.5695 73.3176 83.3092 73.935 83.8683C74.5524 84.4158 75.362 84.6895 76.3637 84.6895C77.1093 84.6895 77.7441 84.5497 78.2683 84.2702C78.8041 83.9906 79.1653 83.5945 79.3516 83.082H81.3261C80.9999 84.0954 80.4 84.8817 79.5264 85.4409C78.6644 85.9884 77.6102 86.2621 76.3637 86.2621C74.7795 86.2621 73.5215 85.8194 72.5896 84.9341C71.6693 84.0372 71.2092 82.8316 71.2092 81.3172C71.2092 79.7912 71.6751 78.574 72.607 77.6654C73.5389 76.7568 74.7912 76.3025 76.3637 76.3025C77.9713 76.3025 79.2235 76.7509 80.1205 77.6479C81.029 78.5332 81.4833 79.7563 81.4833 81.3172V81.6492ZM73.0439 80.4436H79.6662C79.538 79.6398 79.1827 79.0108 78.6003 78.5565C78.0179 78.1022 77.2723 77.875 76.3637 77.875C75.4668 77.875 74.7213 78.1022 74.1272 78.5565C73.5448 79.0108 73.1836 79.6398 73.0439 80.4436ZM84.1761 74.2057H85.871V76.5995H88.1774V78.0323H85.871V83.6062C85.871 84.0022 85.9584 84.2818 86.1331 84.4449C86.3078 84.608 86.6049 84.6895 87.0242 84.6895C87.3853 84.6895 87.7697 84.6429 88.1774 84.5497V86.1048C87.4902 86.2097 86.966 86.2621 86.6049 86.2621C85.7778 86.2621 85.1663 86.0874 84.7702 85.7379C84.3741 85.3768 84.1761 84.8293 84.1761 84.0954V78.0323H82.5336V76.5995H84.1761V74.2057Z" fill="white" fill-opacity="0.6"/>
<path fill-rule="evenodd" clip-rule="evenodd" d="M59.57 40.5464L80.6596 19.3195L61.476 0.0110579L64.4451 7.24485L76.4417 19.3195L59.57 36.301L42.6984 19.3195L54.722 7.0475L57.6751 0L38.4805 19.3195L59.57 40.5464Z" fill="white"/>
<path d="M59.57 36.301L57.6751 0L54.722 7.0475L59.57 36.301Z" fill="white"/>
<path d="M61.476 0.0110579L59.57 36.301L64.4451 7.24485L61.476 0.0110579Z" fill="white"/>
</svg>
