<svg width="176" height="43" viewBox="0 0 176 43" fill="none" xmlns="http://www.w3.org/2000/svg">
<path d="M71.4345 7.90595C71.0564 6.54476 70.2623 5.4955 69.0524 4.75819C67.8424 4.00197 66.3016 3.62386 64.43 3.62386C62.029 3.62386 60.1479 4.34227 58.7867 5.77908C57.4444 7.2159 56.7733 9.19153 56.7733 11.706C56.7733 14.1826 57.4444 16.1487 58.7867 17.6045C60.1479 19.0602 62.0006 19.7881 64.3449 19.7881C66.4623 19.7881 68.2016 19.2398 69.5628 18.1433C70.924 17.0279 71.6992 15.5343 71.8882 13.6627H65.3658V10.9686H74.6106V22H72.5688L72.2852 18.5403C70.6594 21.206 68.0031 22.5388 64.3166 22.5388C61.1215 22.5388 58.5598 21.5463 56.6315 19.5612C54.7031 17.5761 53.7389 14.9577 53.7389 11.706C53.7389 8.39749 54.7126 5.76963 56.6598 3.82236C58.6071 1.85619 61.2728 0.873106 64.6569 0.873106C67.3225 0.873106 69.5628 1.54425 71.3778 2.88654C73.1927 4.20993 74.2041 5.88306 74.4121 7.90595H71.4345ZM94.78 14.9388H81.0262C81.0262 16.4323 81.5272 17.6328 82.5292 18.5403C83.5312 19.4289 84.8451 19.8731 86.471 19.8731C87.6809 19.8731 88.7113 19.6463 89.562 19.1925C90.4317 18.7388 91.0178 18.096 91.3203 17.2642H94.5247C93.9954 18.909 93.0218 20.1851 91.6038 21.0925C90.2048 21.9811 88.4939 22.4254 86.471 22.4254C83.8998 22.4254 81.8581 21.707 80.3456 20.2701C78.8521 18.8144 78.1053 16.8577 78.1053 14.4C78.1053 11.9234 78.8615 9.94775 80.374 8.47312C81.8864 6.99849 83.9188 6.26117 86.471 6.26117C89.08 6.26117 91.1123 6.98904 92.568 8.44476C94.0426 9.88158 94.78 11.8667 94.78 14.4V14.9388ZM81.0829 12.9821H91.8307C91.6227 11.6776 91.0461 10.6567 90.1009 9.91939C89.1556 9.18207 87.9456 8.81342 86.471 8.81342C85.0153 8.81342 83.8053 9.18207 82.8411 9.91939C81.8959 10.6567 81.3098 11.6776 81.0829 12.9821ZM100.625 6.74326V9.38058C102.194 7.30098 104.283 6.26117 106.892 6.26117C109.066 6.26117 110.569 6.82834 111.401 7.96267C112.252 9.097 112.677 10.7512 112.677 12.9254V22H109.926V13.1522C109.926 11.5642 109.652 10.4109 109.104 9.69252C108.556 8.95521 107.61 8.58655 106.268 8.58655C104.642 8.58655 103.291 9.1159 102.213 10.1746C101.154 11.2144 100.625 12.5756 100.625 14.2582V22H97.8741V6.74326H100.625ZM132.443 14.9388H118.69C118.69 16.4323 119.191 17.6328 120.192 18.5403C121.194 19.4289 122.508 19.8731 124.134 19.8731C125.344 19.8731 126.375 19.6463 127.225 19.1925C128.095 18.7388 128.681 18.096 128.984 17.2642H132.188C131.659 18.909 130.685 20.1851 129.267 21.0925C127.868 21.9811 126.157 22.4254 124.134 22.4254C121.563 22.4254 119.521 21.707 118.009 20.2701C116.515 18.8144 115.769 16.8577 115.769 14.4C115.769 11.9234 116.525 9.94775 118.037 8.47312C119.55 6.99849 121.582 6.26117 124.134 6.26117C126.743 6.26117 128.776 6.98904 130.231 8.44476C131.706 9.88158 132.443 11.8667 132.443 14.4V14.9388ZM118.746 12.9821H129.494C129.286 11.6776 128.709 10.6567 127.764 9.91939C126.819 9.18207 125.609 8.81342 124.134 8.81342C122.679 8.81342 121.469 9.18207 120.504 9.91939C119.559 10.6567 118.973 11.6776 118.746 12.9821ZM149.064 11.3373H146.399C146.21 9.50347 144.735 8.58655 141.975 8.58655C139.328 8.58655 138.005 9.26715 138.005 10.6283C138.005 11.3089 138.25 11.7816 138.742 12.0463C139.252 12.3109 140.16 12.5567 141.464 12.7836L144.754 13.3224C146.493 13.606 147.722 14.0691 148.44 14.7119C149.178 15.3358 149.546 16.3189 149.546 17.6612C149.546 19.2114 148.913 20.393 147.646 21.206C146.38 22.0189 144.508 22.4254 142.031 22.4254C139.649 22.4254 137.844 21.9905 136.615 21.1209C135.405 20.2512 134.715 18.89 134.545 17.0373H137.551C137.683 18.0204 138.127 18.7766 138.884 19.306C139.659 19.8353 140.708 20.1 142.031 20.1C143.563 20.1 144.735 19.9015 145.548 19.5045C146.38 19.0886 146.796 18.5214 146.796 17.803C146.796 17.2358 146.588 16.8199 146.172 16.5552C145.756 16.2905 145.037 16.0731 144.017 15.903L140.614 15.3075C138.685 14.9861 137.305 14.5418 136.473 13.9746C135.66 13.3885 135.254 12.4338 135.254 11.1104C135.254 9.52237 135.83 8.32187 136.984 7.50894C138.156 6.6771 139.867 6.26117 142.117 6.26117C144.385 6.26117 146.106 6.696 147.278 7.56565C148.469 8.43531 149.064 9.69252 149.064 11.3373ZM155.602 6.74326V22H152.851V6.74326H155.602ZM155.602 4.75819H152.851V1.41191H155.602V4.75819ZM158.461 6.74326H162.205L166.544 12.5851L171.081 6.74326H174.767L168.217 14.2582L175.051 22H171.194L166.544 16.0448L161.439 22H157.809L164.615 14.2582L158.461 6.74326Z" fill="white"/>
<path d="M55.0524 27.3146H56.957L60.4865 38.41L63.9462 27.3146H66.008L69.4677 38.41L72.9972 27.3146H74.9018L70.6384 40H68.5067L64.9596 29.0619L61.4476 40H59.3158L55.0524 27.3146ZM82.7379 35.1774C82.2953 35.4454 81.3459 35.6609 79.8898 35.8239C78.8298 35.9404 78.0901 36.0919 77.6707 36.2782C77.2514 36.4646 77.0417 36.8199 77.0417 37.3441C77.0417 37.7984 77.2223 38.1595 77.5834 38.4274C77.9561 38.6953 78.4687 38.8293 79.121 38.8293C80.1694 38.8293 81.0314 38.608 81.707 38.1653C82.3943 37.7227 82.7379 37.1927 82.7379 36.5753V35.1774ZM82.7903 38.5497C81.8934 39.6913 80.5771 40.2621 78.8414 40.2621C77.6766 40.2621 76.7854 40.0116 76.1681 39.5108C75.5507 39.0099 75.242 38.3168 75.242 37.4315C75.242 37.0005 75.3061 36.6277 75.4342 36.3132C75.574 35.9987 75.7545 35.7424 75.9759 35.5444C76.2088 35.3463 76.5175 35.1774 76.9019 35.0377C77.298 34.8862 77.694 34.7756 78.0901 34.7057C78.4861 34.6358 78.9812 34.5659 79.5753 34.496C79.7384 34.4727 79.9539 34.4494 80.2218 34.4261C80.4897 34.4028 80.6878 34.3853 80.8159 34.3737C80.944 34.362 81.1071 34.3446 81.3051 34.3213C81.5148 34.2863 81.6662 34.2572 81.7594 34.2339C81.8526 34.2106 81.9633 34.1756 82.0914 34.1291C82.2312 34.0825 82.3302 34.0359 82.3885 33.9893C82.4467 33.931 82.5049 33.867 82.5632 33.7971C82.6331 33.7155 82.6797 33.6282 82.703 33.535C82.7263 33.4301 82.7379 33.3136 82.7379 33.1855C82.7379 32.6846 82.5341 32.3177 82.1264 32.0847C81.7303 31.8517 81.1071 31.7352 80.2567 31.7352C79.3016 31.7352 78.591 31.8867 78.125 32.1895C77.6707 32.4808 77.4203 32.9584 77.3737 33.6223H75.6089C75.7254 31.4091 77.2339 30.3025 80.1344 30.3025C81.707 30.3025 82.8136 30.5354 83.4543 31.0014C84.1066 31.4673 84.4328 32.2711 84.4328 33.4127V37.2218C84.4328 37.7343 84.4911 38.1071 84.6075 38.3401C84.7357 38.5614 84.957 38.672 85.2715 38.672C85.3997 38.672 85.5686 38.6546 85.7782 38.6196V39.9825C85.2773 40.0641 84.8289 40.1048 84.4328 40.1048C83.5126 40.1048 82.9651 39.5865 82.7903 38.5497ZM89.1995 27.3146V40H87.5047V27.3146H89.1995ZM93.6872 27.3146V40H91.9924V27.3146H93.6872ZM106.003 35.6492H97.5284C97.5284 36.5695 97.8371 37.3092 98.4545 37.8683C99.0719 38.4158 99.8815 38.6895 100.883 38.6895C101.629 38.6895 102.264 38.5497 102.788 38.2702C103.324 37.9906 103.685 37.5945 103.871 37.082H105.846C105.519 38.0954 104.92 38.8817 104.046 39.4409C103.184 39.9884 102.13 40.2621 100.883 40.2621C99.2991 40.2621 98.041 39.8194 97.1091 38.9341C96.1888 38.0372 95.7287 36.8316 95.7287 35.3172C95.7287 33.7912 96.1947 32.574 97.1266 31.6654C98.0585 30.7568 99.3107 30.3025 100.883 30.3025C102.491 30.3025 103.743 30.7509 104.64 31.6479C105.549 32.5332 106.003 33.7563 106.003 35.3172V35.6492ZM97.5634 34.4436H104.186C104.058 33.6398 103.702 33.0108 103.12 32.5565C102.537 32.1022 101.792 31.875 100.883 31.875C99.9863 31.875 99.2408 32.1022 98.6467 32.5565C98.0643 33.0108 97.7032 33.6398 97.5634 34.4436ZM108.696 28.2057H110.391V30.5995H112.697V32.0323H110.391V37.6062C110.391 38.0022 110.478 38.2818 110.653 38.4449C110.827 38.608 111.124 38.6895 111.544 38.6895C111.905 38.6895 112.289 38.6429 112.697 38.5497V40.1048C112.01 40.2097 111.486 40.2621 111.124 40.2621C110.297 40.2621 109.686 40.0874 109.29 39.7379C108.894 39.3768 108.696 38.8293 108.696 38.0954V32.0323H107.053V30.5995H108.696V28.2057Z" fill="white" fill-opacity="0.6"/>
<path fill-rule="evenodd" clip-rule="evenodd" d="M21.0896 42.5464L42.1791 21.3195L22.9955 2.01106L25.9646 9.24485L37.9612 21.3195L21.0896 38.301L4.21792 21.3195L16.2415 9.0475L19.1946 2L0 21.3195L21.0896 42.5464Z" fill="white"/>
<path d="M21.0896 38.301L19.1946 2L16.2415 9.0475L21.0896 38.301Z" fill="white"/>
<path d="M22.9955 2.01106L21.0896 38.301L25.9646 9.24485L22.9955 2.01106Z" fill="white"/>
</svg>
